<svg width="30" height="30" viewBox="0 0 30 30" fill="none" xmlns="http://www.w3.org/2000/svg">
<path fill-rule="evenodd" clip-rule="evenodd" d="M5.24997 15C5.24997 14.4477 5.69768 14 6.24997 14H23.75C24.3023 14 24.75 14.4477 24.75 15C24.75 15.5523 24.3023 16 23.75 16H6.24997C5.69768 16 5.24997 15.5523 5.24997 15Z" fill="#1F2937"/>
<path fill-rule="evenodd" clip-rule="evenodd" d="M14.2929 5.54283C14.6834 5.15231 15.3166 5.15231 15.7071 5.54283L24.4571 14.2928C24.8476 14.6834 24.8476 15.3165 24.4571 15.707L15.7071 24.457C15.3166 24.8476 14.6834 24.8476 14.2929 24.457C13.9024 24.0665 13.9024 23.4334 14.2929 23.0428L22.3358 14.9999L14.2929 6.95705C13.9024 6.56652 13.9024 5.93336 14.2929 5.54283Z" fill="#1F2937"/>
</svg>
